<svg width="24" height="24" viewBox="0 0 24 24" fill="none" xmlns="http://www.w3.org/2000/svg">
<g clip-path="url(#clip0_103_59)">
<path fill-rule="evenodd" clip-rule="evenodd" d="M15 6C15 7.30622 14.1652 8.41746 13 8.82929V11H16C17.6569 11 19 12.3431 19 14V15.1707C20.1652 15.5825 21 16.6938 21 18C21 19.6569 19.6569 21 18 21C16.3431 21 15 19.6569 15 18C15 16.6938 15.8348 15.5825 17 15.1707V14C17 13.4477 16.5523 13 16 13H8C7.44772 13 7 13.4477 7 14V15.1707C8.16519 15.5825 9 16.6938 9 18C9 19.6569 7.65685 21 6 21C4.34315 21 3 19.6569 3 18C3 16.6938 3.83481 15.5825 5 15.1707V14C5 12.3431 6.34315 11 8 11H11V8.82929C9.83481 8.41746 9 7.30622 9 6C9 4.34315 10.3431 3 12 3C13.6569 3 15 4.34315 15 6ZM12 5C11.4477 5 11 5.44772 11 6C11 6.55228 11.4477 7 12 7C12.5523 7 13 6.55228 13 6C13 5.44772 12.5523 5 12 5ZM6 17C5.44772 17 5 17.4477 5 18C5 18.5523 5.44772 19 6 19C6.55228 19 7 18.5523 7 18C7 17.4477 6.55228 17 6 17ZM18 17C17.4477 17 17 17.4477 17 18C17 18.5523 17.4477 19 18 19C18.5523 19 19 18.5523 19 18C19 17.4477 18.5523 17 18 17Z" fill="#1F41BB" stroke="white" stroke-width="0.5"/>
</g>
<defs>
<clipPath id="clip0_103_59">
<rect width="24" height="24" fill="white"/>
</clipPath>
</defs>
</svg>
