<svg width="25" height="24" viewBox="0 0 25 24" fill="none" xmlns="http://www.w3.org/2000/svg">
<g clip-path="url(#clip0_114_111)">
<path d="M12.8848 5.1801L19.8425 7.02324L12.884 9.05611L5.49038 7.02324L12.8848 5.17935M12.8938 3.63585C12.8652 3.63572 12.8366 3.639 12.8088 3.64564L0.846404 6.62721C0.771176 6.64589 0.704242 6.68898 0.656152 6.74977C0.608062 6.81056 0.58151 6.88561 0.580649 6.96311C0.579788 7.04062 0.604692 7.1162 0.651419 7.17804C0.698146 7.23989 0.764073 7.28449 0.838867 7.30483L12.8005 10.5921C12.8306 10.6004 12.8618 10.6047 12.8931 10.6049C12.9262 10.6046 12.9592 10.5998 12.991 10.5905L24.2478 7.30331C24.3226 7.28289 24.3885 7.23824 24.4351 7.17634C24.4818 7.11445 24.5066 7.03881 24.5057 6.9613C24.5047 6.88379 24.4781 6.80878 24.4299 6.74805C24.3817 6.68731 24.3148 6.64428 24.2396 6.62569L12.9834 3.64263C12.9542 3.63513 12.924 3.63134 12.8938 3.63135V3.63585Z" fill="#1F41BB"/>
<path d="M17.6071 20.3679H7.53077C6.75031 20.4074 5.98589 20.1366 5.40423 19.6148C4.82257 19.0929 4.47083 18.3623 4.42572 17.5821V10.9331C4.42572 10.7334 4.50506 10.5419 4.64626 10.4007C4.78745 10.2595 4.97895 10.1802 5.17864 10.1802C5.37832 10.1802 5.56987 10.2595 5.71107 10.4007C5.85227 10.5419 5.93156 10.7334 5.93156 10.9331V17.5821C5.9788 17.9618 6.17242 18.308 6.47111 18.547C6.7698 18.7861 7.14999 18.8991 7.53077 18.8621H17.6071C17.988 18.8995 18.3685 18.7867 18.6674 18.5476C18.9663 18.3084 19.1599 17.962 19.207 17.5821V10.9331C19.207 10.7334 19.2863 10.5419 19.4275 10.4007C19.5687 10.2595 19.7602 10.1802 19.9599 10.1802C20.1596 10.1802 20.3511 10.2595 20.4923 10.4007C20.6335 10.5419 20.7128 10.7334 20.7128 10.9331V17.5821C20.6677 18.3624 20.3159 19.0932 19.7341 19.6151C19.1522 20.1369 18.3876 20.4076 17.6071 20.3679Z" fill="#1F41BB"/>
<path d="M1.25292 13.7498C1.05323 13.7498 0.861735 13.6705 0.720535 13.5293C0.579336 13.3881 0.5 13.1966 0.5 12.9969V9.8286C0.5 9.62891 0.579336 9.43742 0.720535 9.29622C0.861735 9.15502 1.05323 9.07568 1.25292 9.07568C1.4526 9.07568 1.6441 9.15502 1.7853 9.29622C1.9265 9.43742 2.00584 9.62891 2.00584 9.8286V12.9969C2.00584 13.1966 1.9265 13.3881 1.7853 13.5293C1.6441 13.6705 1.4526 13.7498 1.25292 13.7498Z" fill="#1F41BB"/>
</g>
<defs>
<clipPath id="clip0_114_111">
<rect width="24" height="24" fill="white" transform="translate(0.5)"/>
</clipPath>
</defs>
</svg>
